<svg width="16" height="17" viewBox="0 0 16 17" fill="none" xmlns="http://www.w3.org/2000/svg">
<path d="M14.5833 16.1694L9.10417 10.3405C8.6875 10.7246 8.20139 11.0238 7.64583 11.2381C7.09028 11.4523 6.5 11.5594 5.875 11.5594C4.375 11.5594 3.10417 11.0054 2.0625 9.8972C1.02083 8.78904 0.5 7.45187 0.5 5.88567C0.5 4.31948 1.02083 2.9823 2.0625 1.87415C3.10417 0.765992 4.36806 0.211914 5.85417 0.211914C7.32639 0.211914 8.57986 0.765992 9.61458 1.87415C10.6493 2.9823 11.1667 4.31948 11.1667 5.88567C11.1667 6.52102 11.0694 7.1342 10.875 7.72521C10.6806 8.31623 10.3889 8.87031 10 9.38745L15.5 15.1942L14.5833 16.1694ZM5.85417 10.2296C6.97917 10.2296 7.9375 9.80485 8.72917 8.95527C9.52083 8.10568 9.91667 7.08248 9.91667 5.88567C9.91667 4.68886 9.52083 3.66567 8.72917 2.81608C7.9375 1.96649 6.97917 1.5417 5.85417 1.5417C4.71528 1.5417 3.74653 1.96649 2.94792 2.81608C2.14931 3.66567 1.75 4.68886 1.75 5.88567C1.75 7.08248 2.14931 8.10568 2.94792 8.95527C3.74653 9.80485 4.71528 10.2296 5.85417 10.2296Z" fill="#6B7073"/>
</svg>
